# xmcd
#
# Track frame offsets:
#	150
#	27305
#	51562
#	72655
#
# Disc length: 1221 seconds
#
# Revision: 2
# Processed by: cddbd v1.5.2PL0 Copyright (c) Steve Scherf et al.
# Submitted via: audiograbber 1.83.01
#
DISCID=3b04c304
DTITLE=SOLEMN - DEMO2012
DYEAR=2012
DGENRE=
TTITLE0=The Train
TTITLE1=Journey
TTITLE2=On Fire
TTITLE3=Gonna Kiss The Landlord
EXTD=
EXTT0=
EXTT1=
EXTT2=
EXTT3=
PLAYORDER=
